<?xml version="1.0" standalone="no"?><!DOCTYPE svg PUBLIC "-//W3C//DTD SVG 1.1//EN" "http://www.w3.org/Graphics/SVG/1.1/DTD/svg11.dtd"><svg t="1767577018840" class="icon" viewBox="0 0 1024 1024" version="1.1" xmlns="http://www.w3.org/2000/svg" p-id="7365" width="64" height="64" xmlns:xlink="http://www.w3.org/1999/xlink"><path d="M291.73 845.65l133.56 49.24 105.42 9.67 97.83-17.58 55.8-22.2 21.83-11.61-62.6-51.62L512 716 291.73 845.65z" fill="#FFE100" p-id="7366"></path><path d="M294.115 833.675l382.627-244.324 15.242 23.87-382.628 244.323z" p-id="7367"></path><path d="M849.51 712.23L497.83 506V119.43h28.33v370.34l337.68 198.02-14.33 24.44z" p-id="7368"></path><path d="M160.125 687.792l344.697-202.07 14.327 24.44-344.696 202.07z" p-id="7369"></path><path d="M248.53 210.4h28.32v429.39h-28.32zM374.93 139.13h28.32v430.84h-28.32zM744.91 616.6h-28.32V419.7l-99.15-55v186.72h-28.32V316.58l155.79 86.45V616.6zM324.248 610.795l15.437-23.743L722.777 836.12l-15.437 23.743z" p-id="7370"></path><path d="M666.17 478.62h28.32v39.96h-28.32z" p-id="7371"></path><path d="M512 918.73c-224.27 0-406.73-182.46-406.73-406.73S287.73 105.27 512 105.27 918.73 287.73 918.73 512 736.27 918.73 512 918.73z m0-785.14c-208.65 0-378.4 169.76-378.4 378.41S303.35 890.41 512 890.41 890.4 720.65 890.4 512 720.65 133.59 512 133.59z" p-id="7372"></path></svg>